<svg xmlns="http://www.w3.org/2000/svg" width="300" height="600" viewBox="0 0 300 600"><g fill="#231f20"><path d="M253.745 577.651c-1.159 0-2.169-.81-2.169-2.31 0-1.698 1.25-3.518 2.959-4.397l.899.42c-1.199.6-2.139 1.449-2.608 2.559.239-.239.56-.409.989-.409 1.219 0 2.049.909 2.049 2.059 0 1.198-.899 2.078-2.119 2.078zm.01-3.298c-.499 0-1.059.19-1.239.89-.01.11-.01.22-.01.33 0 .72.6 1.319 1.26 1.319.659 0 1.179-.51 1.179-1.27-.001-.72-.49-1.269-1.19-1.269zM258.795 577.661c-1.159 0-2.179-1.06-2.179-3.318 0-2.239 1.02-3.309 2.179-3.309 1.14 0 2.18 1.069 2.18 3.309 0 2.259-1.04 3.318-2.18 3.318zm0-5.817c-.649 0-1.259.7-1.259 2.499 0 1.819.609 2.509 1.259 2.509.64 0 1.26-.689 1.26-2.509 0-1.799-.62-2.499-1.26-2.499zM263.296 577.651c-.489 0-.949-.11-1.209-.25l-.101-.899c.4.239.82.35 1.26.35.739 0 1.369-.47 1.369-1.27 0-.819-.63-1.31-1.339-1.31-.47 0-.8.061-1.1.17l.1-3.278h2.788l-.169.78h-1.75l-.039 1.549c.079-.01.18-.02.26-.02 1.189 0 2.168.799 2.168 2.118 0 1.1-.769 2.06-2.238 2.06zM267.476 577.541h-.979l2.419-5.597h-2.929v-.78h4.228l-2.739 6.377zM271.566 577.541v-5.646l-1.1.109.17-.76 1.839-.17v6.467h-.909zM275.046 577.651c-.489 0-.949-.11-1.209-.25l-.101-.899c.4.239.82.35 1.26.35.739 0 1.369-.47 1.369-1.27 0-.819-.63-1.31-1.339-1.31-.47 0-.8.061-1.1.17l.1-3.278h2.788l-.169.78h-1.75l-.039 1.549c.079-.01.18-.02.26-.02 1.189 0 2.168.799 2.168 2.118 0 1.1-.769 2.06-2.238 2.06zM281.425 577.651c-.311-.07-.65-.33-.72-.71-.21.529-.689.71-1.21.71-.899 0-1.459-.66-1.459-1.39 0-.88.72-1.379 1.489-1.449l1.06-.1v-.29c0-.41-.24-.739-.88-.739-.449 0-.919.14-1.249.359l-.18-.75c.409-.27.93-.39 1.479-.39 1.009 0 1.738.57 1.738 1.64v1.829c0 .409.22.649.51.699l-.578.581zm-.84-2.189l-.869.08c-.58.05-.81.399-.81.729 0 .32.26.61.669.61.54 0 1.01-.41 1.01-1.02v-.399z"/></g></svg>