<svg id="Layer_3" xmlns="http://www.w3.org/2000/svg" width="300" height="600" viewBox="0 0 300 600"><style>.st0{fill:#231f20}</style><path class="st0" d="M40.421 62.437l-1.414-3.841h-5.415l-1.414 3.841h-3.895l6.695-17.15h2.854l6.695 17.15h-4.106zM36.82 52.222c-.16-.454-.373-1.014-.507-1.574h-.053c-.133.56-.32 1.147-.48 1.574l-1.147 3.147h3.334l-1.147-3.147zM60.02 48.808v13.629h-4.134V48.808h-4.881V45.42h13.896v3.388H60.02zM66.604 62.437V45.42h4.134v17.017h-4.134zM84.58 62.437l-1.414-3.841h-5.414l-1.414 3.841h-3.894l6.695-17.15h2.854l6.695 17.15H84.58zm-3.601-10.215c-.16-.454-.374-1.014-.507-1.574h-.053c-.133.56-.32 1.147-.48 1.574l-1.147 3.147h3.334l-1.147-3.147zM101.86 62.437l-1.414-3.841h-5.415l-1.414 3.841h-3.895l6.695-17.15h2.854l6.695 17.15h-4.106zm-3.601-10.215c-.16-.454-.373-1.014-.507-1.574h-.053c-.133.56-.32 1.147-.48 1.574l-1.147 3.147h3.334l-1.147-3.147zM121.992 62.971c-.72-.16-1.547-.72-1.867-1.601-.533.987-1.68 1.467-3.147 1.467-2.134 0-4.028-1.494-4.028-4 0-2.214 1.734-3.708 4.134-3.948l2.4-.24v-.4c0-.72-.586-1.2-1.894-1.2-1.174 0-2.48.374-3.361.934l-.693-2.96c.987-.641 2.641-1.067 4.241-1.067 3.201 0 5.468 1.467 5.468 4.375v3.948c0 1.414.534 2.16 1.467 2.507l-2.72 2.185zm-2.508-5.815l-1.467.133c-1.014.08-1.467.8-1.467 1.521 0 .64.48 1.174 1.227 1.174.934 0 1.707-.72 1.707-1.761v-1.067zM134.978 62.437v-1.494h-.026c-.667 1.227-2.054 1.84-3.734 1.84-2.96 0-5.814-2.24-5.814-6.375 0-3.895 2.774-6.428 6.135-6.428 1.28 0 2.587.427 3.067.827v-7.361h3.814v18.991h-3.442zm-.374-7.922c-.374-.506-1.174-1.093-2.374-1.093-1.707 0-2.907 1.333-2.907 3.067 0 1.733 1.2 3.067 2.907 3.067a2.812 2.812 0 0 0 2.374-1.254v-3.787zM147.43 62.544h-2.934l-4.641-12.189h3.788l1.707 4.614c.24.64.48 1.547.667 2.347h.053c.187-.773.454-1.707.693-2.347l1.707-4.614h3.627l-4.667 12.189zM155.535 48.701c-.693 0-2.106-1.414-2.106-2.107s1.413-2.081 2.106-2.081c.694 0 2.107 1.387 2.107 2.081s-1.413 2.107-2.107 2.107zm-1.973 13.736V50.354h3.948v12.083h-3.948zM163.962 62.704c-1.653 0-2.854-.347-3.841-.854l-.347-3.467c1.066.747 2.454 1.307 3.787 1.307.721 0 1.174-.374 1.174-.827 0-.507-.4-.72-1.094-.934-2.32-.667-3.707-1.84-3.707-3.947 0-2.374 1.92-3.894 4.534-3.894 1.493 0 2.961.4 3.574.72l-.667 2.881c-.587-.32-1.547-.667-2.507-.667-.641 0-1.067.293-1.067.773 0 .454.32.694 1.067.88 2.721.72 3.841 2.081 3.841 4.107.001 2.055-1.493 3.922-4.747 3.922zM176.603 62.811c-3.654 0-6.589-2.587-6.589-6.428s2.935-6.428 6.589-6.428c3.627 0 6.588 2.587 6.588 6.428s-2.962 6.428-6.588 6.428zm0-9.443c-1.468 0-2.721 1.28-2.721 3.067s1.253 3.067 2.721 3.067c1.44 0 2.72-1.28 2.72-3.067s-1.28-3.067-2.72-3.067zM192.655 54.515a2.924 2.924 0 0 0-1.174-.293c-1.254 0-2.4.667-2.4 2.587v5.628h-3.921V50.354h3.867v2.694h.026c.4-1.894 1.814-2.907 3.441-2.907.373 0 .826.053 1.12.16l-.959 4.214zM210.201 54.249c-.8-.507-1.627-.773-2.587-.773-1.707 0-3.067 1.227-3.067 2.987 0 1.734 1.36 2.987 3.147 2.987 1.014 0 1.787-.213 2.641-.667l-.347 3.334c-.801.373-1.841.586-2.961.586-3.388 0-6.535-2.4-6.535-6.294 0-3.948 3.175-6.321 6.455-6.321 1.601 0 2.907.32 3.975.907l-.721 3.254zM221.268 62.971c-.72-.16-1.547-.72-1.867-1.601-.533.987-1.68 1.467-3.147 1.467-2.134 0-4.027-1.494-4.027-4 0-2.214 1.733-3.708 4.135-3.948l2.4-.24v-.4c0-.72-.587-1.2-1.894-1.2-1.174 0-2.481.374-3.361.934l-.693-2.96c.987-.641 2.641-1.067 4.241-1.067 3.2 0 5.468 1.467 5.468 4.375v3.948c0 1.414.533 2.16 1.467 2.507l-2.722 2.185zm-2.507-5.815l-1.468.133c-1.013.08-1.467.8-1.467 1.521 0 .64.48 1.174 1.228 1.174.934 0 1.707-.72 1.707-1.761v-1.067zM232.974 62.437v-7.415c0-.88-.587-1.654-1.787-1.654-1.174 0-1.92.747-1.92 1.707v7.362h-3.921V50.354h3.601v1.627h.026c.48-1.28 1.734-2 3.681-2 2.641 0 4.241 1.494 4.241 4.054v8.402h-3.921z"/><g><path class="st0" d="M36.927 90.437v-7.415c0-.88-.614-1.654-1.814-1.654-1.173 0-1.894.747-1.894 1.707v7.362h-3.921V71.446h3.868v8.028h.026c.614-.934 1.734-1.494 3.414-1.494 2.667 0 4.241 1.494 4.241 4.054v8.402h-3.92zM54.394 83.716l-1.734 1.76h-5.921c.187.987 1.52 2.107 3.574 2.107 1.253 0 2.534-.374 3.334-.907l-.374 3.361c-.907.48-2.294.8-3.841.8-3.681 0-6.642-2.561-6.642-6.508 0-3.894 2.828-6.375 6.295-6.375 3.361 0 5.415 2.321 5.415 4.828.001.293-.053.694-.106.934zm-5.308-2.828c-1.147 0-2.107.88-2.347 1.974h4.081c0-.08.027-.16.027-.267 0-.826-.721-1.707-1.761-1.707zM60.579 90.917c-2.48-.106-4.134-1.387-4.134-4.294V71.446h3.868v14.696c0 .987.56 1.521 1.627 1.601l-1.361 3.174zM70.393 90.784c-1.28 0-2.587-.4-3.067-.8v6.615h-3.814V78.354h3.441v1.494h.027c.667-1.227 2.054-1.84 3.734-1.84 2.961 0 5.815 2.24 5.815 6.375-.002 3.893-2.776 6.401-6.136 6.401zm-.694-9.362a2.81 2.81 0 0 0-2.374 1.253v3.788c.374.507 1.173 1.067 2.374 1.067 1.707 0 2.907-1.307 2.907-3.041s-1.2-3.067-2.907-3.067zM91.885 89.237c-1.84 4.854-3.761 6.615-6.028 7.495l-2.401-2.4c1.947-.747 3.441-2.16 4.428-4.721l-4.348-11.256h3.788l1.76 4.694c.267.693.534 1.521.72 2.374h.053c.24-.827.507-1.681.774-2.374l1.76-4.694h3.601l-4.107 10.882zM102.951 90.811c-3.654 0-6.588-2.587-6.588-6.428s2.934-6.428 6.588-6.428c3.627 0 6.588 2.587 6.588 6.428s-2.96 6.428-6.588 6.428zm0-9.443c-1.467 0-2.721 1.28-2.721 3.067s1.254 3.067 2.721 3.067c1.44 0 2.721-1.28 2.721-3.067s-1.28-3.067-2.721-3.067zM119.431 90.437v-1.654h-.026c-.48 1.28-1.761 2-3.708 2-2.641 0-4.241-1.467-4.241-4.027v-8.402h3.92v7.415c0 .88.614 1.653 1.814 1.653 1.173 0 1.894-.773 1.894-1.733v-7.335h3.921v12.083h-3.574zM140.63 82.249c-.8-.507-1.627-.773-2.587-.773-1.707 0-3.067 1.227-3.067 2.987 0 1.734 1.36 2.987 3.147 2.987 1.013 0 1.787-.213 2.64-.667l-.347 3.334c-.8.373-1.84.586-2.96.586-3.387 0-6.535-2.4-6.535-6.294 0-3.948 3.174-6.321 6.455-6.321 1.601 0 2.907.32 3.974.907l-.72 3.254zM149.109 90.811c-3.654 0-6.588-2.587-6.588-6.428s2.934-6.428 6.588-6.428c3.628 0 6.588 2.587 6.588 6.428s-2.96 6.428-6.588 6.428zm0-9.443c-1.467 0-2.721 1.28-2.721 3.067s1.254 3.067 2.721 3.067c1.44 0 2.721-1.28 2.721-3.067s-1.28-3.067-2.721-3.067zM165.296 90.437v-7.415c0-.88-.587-1.654-1.787-1.654-1.174 0-1.92.747-1.92 1.707v7.362h-3.921V78.354h3.601v1.627h.026c.48-1.28 1.734-2 3.681-2 2.641 0 4.241 1.494 4.241 4.054v8.402h-3.921zM175.588 90.704c-1.653 0-2.854-.347-3.841-.854l-.347-3.467c1.066.747 2.454 1.307 3.787 1.307.721 0 1.174-.374 1.174-.827 0-.507-.4-.72-1.094-.934-2.32-.667-3.707-1.84-3.707-3.947 0-2.374 1.92-3.894 4.534-3.894 1.493 0 2.961.4 3.574.72l-.667 2.881c-.587-.32-1.547-.667-2.507-.667-.641 0-1.067.293-1.067.773 0 .454.32.694 1.067.88 2.72.72 3.841 2.081 3.841 4.107.001 2.055-1.493 3.922-4.747 3.922zM188.229 90.811c-3.654 0-6.589-2.587-6.589-6.428s2.935-6.428 6.589-6.428c3.627 0 6.588 2.587 6.588 6.428s-2.962 6.428-6.588 6.428zm0-9.443c-1.468 0-2.721 1.28-2.721 3.067s1.253 3.067 2.721 3.067c1.439 0 2.721-1.28 2.721-3.067s-1.282-3.067-2.721-3.067zM200.947 90.917c-2.48-.106-4.134-1.387-4.134-4.294V71.446h3.867v14.696c0 .987.561 1.521 1.627 1.601l-1.36 3.174zM205.906 76.701c-.693 0-2.106-1.414-2.106-2.107s1.413-2.081 2.106-2.081c.694 0 2.107 1.387 2.107 2.081s-1.412 2.107-2.107 2.107zm-1.973 13.736V78.354h3.948v12.083h-3.948zM219.455 90.437v-1.494h-.027c-.666 1.227-2.054 1.84-3.733 1.84-2.961 0-5.815-2.24-5.815-6.375 0-3.895 2.774-6.428 6.135-6.428 1.28 0 2.588.427 3.067.827v-7.361h3.814v18.991h-3.441zm-.374-7.922c-.373-.506-1.173-1.093-2.374-1.093-1.707 0-2.907 1.333-2.907 3.067 0 1.733 1.2 3.067 2.907 3.067a2.812 2.812 0 0 0 2.374-1.254v-3.787zM233.96 90.971c-.72-.16-1.547-.72-1.867-1.601-.533.987-1.681 1.467-3.147 1.467-2.134 0-4.027-1.494-4.027-4 0-2.214 1.733-3.708 4.135-3.948l2.4-.24v-.4c0-.72-.587-1.2-1.895-1.2-1.173 0-2.48.374-3.36.934l-.693-2.96c.987-.641 2.641-1.067 4.241-1.067 3.2 0 5.468 1.467 5.468 4.375v3.948c0 1.414.533 2.16 1.467 2.507l-2.722 2.185zm-2.507-5.815l-1.467.133c-1.014.08-1.468.8-1.468 1.521 0 .64.48 1.174 1.228 1.174.934 0 1.707-.72 1.707-1.761v-1.067zM245.854 81.555h-3.147v4.481c0 1.04.56 1.467 1.601 1.467.453 0 .72-.026 1.014-.16l-.348 2.961c-.373.187-1.04.32-1.813.32-2.721 0-4.348-1.44-4.348-3.841v-5.228h-2.026v-3.201h2.026v-2.587l3.895-1.414v4.001h3.894l-.748 3.201zM258.787 83.716l-1.733 1.76h-5.922c.188.987 1.521 2.107 3.574 2.107 1.254 0 2.534-.374 3.334-.907l-.373 3.361c-.907.48-2.294.8-3.841.8-3.681 0-6.642-2.561-6.642-6.508 0-3.894 2.827-6.375 6.295-6.375 3.36 0 5.414 2.321 5.414 4.828.001.293-.052.694-.106.934zm-5.308-2.828c-1.147 0-2.107.88-2.348 1.974h4.081c0-.08.027-.16.027-.267.001-.826-.719-1.707-1.76-1.707z"/></g><g><path class="st0" d="M38.447 110.248c-.8-.507-1.627-.773-2.587-.773-1.707 0-3.067 1.227-3.067 2.987 0 1.734 1.36 2.987 3.147 2.987 1.013 0 1.787-.213 2.641-.667l-.347 3.334c-.8.373-1.84.586-2.96.586-3.387 0-6.535-2.4-6.535-6.294 0-3.948 3.174-6.321 6.455-6.321 1.601 0 2.907.32 3.974.907l-.721 3.254zM46.926 118.81c-3.654 0-6.588-2.587-6.588-6.428s2.934-6.428 6.588-6.428c3.627 0 6.588 2.587 6.588 6.428s-2.96 6.428-6.588 6.428zm0-9.443c-1.467 0-2.72 1.28-2.72 3.067s1.253 3.067 2.72 3.067c1.44 0 2.721-1.28 2.721-3.067s-1.28-3.067-2.721-3.067zM63.113 118.436v-7.415c0-.88-.586-1.654-1.787-1.654-1.173 0-1.92.747-1.92 1.707v7.362h-3.921v-12.083h3.601v1.627h.027c.48-1.28 1.733-2 3.681-2 2.641 0 4.241 1.494 4.241 4.054v8.402h-3.922zM77.939 102.939a4.599 4.599 0 0 0-1.574-.32c-1.44 0-2.187.854-2.187 2.587v1.147h3.467l-.773 3.201h-2.694v8.882H70.39v-8.882h-1.84v-3.201h1.84v-1.414c0-3.681 2.374-5.495 5.415-5.495 1.12 0 2.241.133 2.854.4l-.72 3.095zM81.297 104.7c-.693 0-2.107-1.414-2.107-2.107s1.414-2.081 2.107-2.081 2.107 1.387 2.107 2.081-1.413 2.107-2.107 2.107zm-1.973 13.736v-12.083h3.947v12.083h-3.947zM95.032 118.436v-1.494h-.026c-.667 1.227-2.054 1.84-3.734 1.84-2.96 0-5.814-2.24-5.814-6.375 0-3.895 2.774-6.428 6.135-6.428 1.28 0 2.587.427 3.067.827v-7.361h3.814v18.991h-3.442zm-.374-7.922c-.373-.506-1.173-1.093-2.374-1.093-1.707 0-2.907 1.333-2.907 3.067 0 1.733 1.2 3.067 2.907 3.067a2.812 2.812 0 0 0 2.374-1.254v-3.787zM112.072 111.715l-1.734 1.76h-5.921c.187.987 1.52 2.107 3.574 2.107 1.253 0 2.534-.374 3.334-.907l-.374 3.361c-.907.48-2.294.8-3.841.8-3.681 0-6.642-2.561-6.642-6.508 0-3.894 2.828-6.375 6.295-6.375 3.361 0 5.415 2.321 5.415 4.828.001.293-.053.694-.106.934zm-5.308-2.828c-1.147 0-2.107.88-2.347 1.974h4.081c0-.08.027-.16.027-.267-.001-.826-.721-1.707-1.761-1.707zM121.75 118.436v-7.415c0-.88-.586-1.654-1.787-1.654-1.173 0-1.92.747-1.92 1.707v7.362h-3.921v-12.083h3.601v1.627h.027c.48-1.28 1.733-2 3.681-2 2.641 0 4.241 1.494 4.241 4.054v8.402h-3.922zM136.097 109.554h-3.147v4.481c0 1.04.56 1.467 1.6 1.467.454 0 .72-.026 1.014-.16l-.347 2.961c-.374.187-1.04.32-1.814.32-2.72 0-4.347-1.44-4.347-3.841v-5.228h-2.027v-3.201h2.027v-2.587l3.894-1.414v4.001h3.894l-.747 3.201zM142.336 118.916c-2.48-.106-4.134-1.387-4.134-4.294V99.445h3.868v14.696c0 .987.56 1.521 1.627 1.601l-1.361 3.174zM152.203 117.236c-1.84 4.854-3.761 6.615-6.028 7.495l-2.401-2.4c1.947-.747 3.441-2.16 4.428-4.721l-4.348-11.256h3.788l1.76 4.694c.267.693.534 1.521.72 2.374h.053c.24-.827.507-1.681.773-2.374l1.761-4.694h3.601l-4.107 10.882zM158.335 118.81c-.721 0-2.214-1.494-2.214-2.214 0-.693 1.493-2.187 2.214-2.187.72 0 2.214 1.494 2.214 2.187 0 .72-1.494 2.214-2.214 2.214z"/></g></svg>