<svg xmlns="http://www.w3.org/2000/svg" width="300" height="600" viewBox="0 0 300 600"><g fill="#231f20"><path d="M31.7 65.146l-4.561-6.695h-1.093v6.695h-3.975V48.129h6.215c2.907 0 5.495 1.947 5.495 5.148 0 1.974-1.174 3.601-2.614 4.268l5.414 7.602H31.7zm-4.027-13.683h-1.627v3.814h1.627c1.067 0 2.134-.587 2.134-1.894 0-1.279-1.067-1.92-2.134-1.92zM47.914 58.425l-1.734 1.761h-5.921c.187.987 1.52 2.107 3.574 2.107 1.253 0 2.534-.374 3.334-.907l-.374 3.361c-.907.48-2.294.8-3.841.8-3.681 0-6.642-2.561-6.642-6.508 0-3.894 2.828-6.375 6.295-6.375 3.361 0 5.415 2.32 5.415 4.828.001.293-.053.693-.106.933zm-5.308-2.827c-1.147 0-2.107.88-2.347 1.974h4.081c0-.08.027-.16.027-.267-.001-.827-.721-1.707-1.761-1.707zM58.153 56.265h-3.147v4.481c0 1.04.56 1.467 1.6 1.467.454 0 .72-.026 1.014-.16l-.347 2.96c-.374.187-1.041.32-1.814.32-2.72 0-4.348-1.44-4.348-3.841v-5.228h-2.027v-3.201h2.027v-2.587l3.895-1.414v4.001H58.9l-.747 3.202zM62.312 51.41c-.693 0-2.107-1.414-2.107-2.107 0-.694 1.414-2.081 2.107-2.081s2.107 1.387 2.107 2.081c-.001.694-1.414 2.107-2.107 2.107zm-1.974 13.736V53.064h3.947v12.083h-3.947zM74.338 57.225a2.919 2.919 0 0 0-1.173-.293c-1.254 0-2.401.667-2.401 2.587v5.628h-3.92V53.064h3.867v2.694h.027c.4-1.894 1.813-2.907 3.44-2.907.374 0 .827.053 1.121.16l-.961 4.214zM87.459 58.425l-1.733 1.761h-5.921c.187.987 1.52 2.107 3.574 2.107 1.254 0 2.534-.374 3.334-.907l-.374 3.361c-.907.48-2.294.8-3.841.8-3.681 0-6.642-2.561-6.642-6.508 0-3.894 2.827-6.375 6.295-6.375 3.36 0 5.415 2.32 5.415 4.828 0 .293-.054.693-.107.933zm-5.308-2.827c-1.147 0-2.107.88-2.347 1.974h4.081c0-.08.027-.16.027-.267 0-.827-.721-1.707-1.761-1.707zM104.393 65.146v-7.415c0-.88-.427-1.653-1.707-1.653-1.253 0-1.813.747-1.813 1.707v7.361h-3.921v-7.415c0-.88-.427-1.653-1.707-1.653-1.253 0-1.814.747-1.814 1.707v7.361H89.51V53.064h3.628v1.627h.026c.48-1.28 1.681-2 3.574-2 1.733 0 3.041.693 3.574 1.974.507-1.173 1.92-1.974 3.734-1.974 2.748 0 4.268 1.494 4.268 4.054v8.402h-3.921zM121.885 58.425l-1.734 1.761h-5.921c.187.987 1.52 2.107 3.574 2.107 1.253 0 2.534-.374 3.334-.907l-.374 3.361c-.907.48-2.294.8-3.841.8-3.681 0-6.642-2.561-6.642-6.508 0-3.894 2.828-6.375 6.295-6.375 3.361 0 5.415 2.32 5.415 4.828.001.293-.053.693-.106.933zm-5.307-2.827c-1.147 0-2.107.88-2.347 1.974h4.081c0-.08.027-.16.027-.267-.001-.827-.721-1.707-1.761-1.707zM131.564 65.146v-7.415c0-.88-.587-1.653-1.787-1.653-1.173 0-1.92.747-1.92 1.707v7.361h-3.92V53.064h3.601v1.627h.026c.48-1.28 1.734-2 3.681-2 2.641 0 4.241 1.494 4.241 4.054v8.402h-3.922zM145.911 56.265h-3.147v4.481c0 1.04.56 1.467 1.6 1.467.454 0 .72-.026 1.014-.16l-.347 2.96c-.374.187-1.041.32-1.814.32-2.72 0-4.348-1.44-4.348-3.841v-5.228h-2.027v-3.201h2.027v-2.587l3.895-1.414v4.001h3.894l-.747 3.202zM162.551 65.68c-.72-.16-1.547-.72-1.867-1.6-.533.987-1.68 1.467-3.147 1.467-2.134 0-4.027-1.494-4.027-4 0-2.214 1.733-3.708 4.135-3.948l2.4-.24v-.4c0-.72-.587-1.2-1.894-1.2-1.174 0-2.481.374-3.361.934l-.693-2.961c.987-.64 2.641-1.066 4.241-1.066 3.2 0 5.468 1.467 5.468 4.374v3.947c0 1.414.533 2.161 1.467 2.507l-2.722 2.186zm-2.507-5.815l-1.468.133c-1.013.08-1.467.8-1.467 1.521 0 .64.48 1.173 1.228 1.173.934 0 1.707-.72 1.707-1.76v-1.067zM175.59 56.958c-.8-.507-1.627-.773-2.587-.773-1.707 0-3.067 1.227-3.067 2.987 0 1.734 1.36 2.987 3.147 2.987 1.014 0 1.787-.213 2.641-.667l-.347 3.334c-.801.374-1.841.587-2.961.587-3.388 0-6.535-2.4-6.535-6.294 0-3.948 3.175-6.321 6.455-6.321 1.601 0 2.907.32 3.975.907l-.721 3.253zM187.216 56.958c-.8-.507-1.627-.773-2.587-.773-1.707 0-3.067 1.227-3.067 2.987 0 1.734 1.36 2.987 3.147 2.987 1.014 0 1.787-.213 2.641-.667l-.347 3.334c-.801.374-1.841.587-2.961.587-3.388 0-6.535-2.4-6.535-6.294 0-3.948 3.175-6.321 6.455-6.321 1.601 0 2.907.32 3.975.907l-.721 3.253zM195.722 65.52c-3.654 0-6.589-2.587-6.589-6.428s2.935-6.428 6.589-6.428c3.627 0 6.588 2.587 6.588 6.428s-2.961 6.428-6.588 6.428zm0-9.442c-1.468 0-2.721 1.28-2.721 3.067 0 1.787 1.253 3.067 2.721 3.067 1.44 0 2.72-1.28 2.72-3.067-.001-1.787-1.28-3.067-2.72-3.067zM212.202 65.146v-1.654h-.026c-.48 1.28-1.761 2-3.708 2-2.64 0-4.24-1.467-4.24-4.027v-8.402h3.921v7.415c0 .88.613 1.653 1.813 1.653 1.174 0 1.894-.773 1.894-1.733v-7.335h3.921v12.083h-3.575zM225.936 65.146v-7.415c0-.88-.587-1.653-1.787-1.653-1.174 0-1.92.747-1.92 1.707v7.361h-3.921V53.064h3.601v1.627h.026c.48-1.28 1.734-2 3.681-2 2.641 0 4.241 1.494 4.241 4.054v8.402h-3.921zM240.282 56.265h-3.147v4.481c0 1.04.56 1.467 1.601 1.467.453 0 .72-.026 1.013-.16l-.347 2.96c-.373.187-1.04.32-1.813.32-2.721 0-4.348-1.44-4.348-3.841v-5.228h-2.027v-3.201h2.027v-2.587l3.895-1.414v4.001h3.895l-.749 3.202zM246.148 65.413c-1.653 0-2.854-.347-3.841-.854l-.347-3.467c1.066.747 2.454 1.307 3.787 1.307.721 0 1.174-.374 1.174-.827 0-.507-.4-.72-1.094-.934-2.32-.667-3.707-1.84-3.707-3.947 0-2.374 1.92-3.894 4.534-3.894 1.493 0 2.961.4 3.574.72l-.667 2.88c-.587-.32-1.547-.667-2.507-.667-.641 0-1.067.293-1.067.774 0 .453.32.693 1.067.88 2.72.72 3.841 2.081 3.841 4.107.001 2.055-1.493 3.922-4.747 3.922z"/></g><g fill="#231f20"><path d="M30.42 96.347c-.72-.16-1.547-.72-1.867-1.6-.533.987-1.68 1.467-3.147 1.467-2.134 0-4.028-1.494-4.028-4 0-2.214 1.734-3.708 4.134-3.948l2.4-.24v-.4c0-.72-.586-1.2-1.894-1.2-1.173 0-2.48.374-3.361.934l-.693-2.961c.987-.64 2.641-1.066 4.241-1.066 3.201 0 5.468 1.467 5.468 4.374v3.947c0 1.414.533 2.161 1.467 2.507l-2.72 2.186zm-2.507-5.815l-1.467.133c-1.014.08-1.467.8-1.467 1.521 0 .64.48 1.173 1.227 1.173.934 0 1.707-.72 1.707-1.76v-1.067zM38.579 96.293c-2.48-.106-4.134-1.387-4.134-4.294V76.823h3.868v14.696c0 .987.56 1.521 1.627 1.601l-1.361 3.173zM45.619 96.293c-2.48-.106-4.134-1.387-4.134-4.294V76.823h3.868v14.696c0 .987.56 1.521 1.627 1.601l-1.361 3.173zM60.712 96.187c-3.654 0-6.588-2.587-6.588-6.428s2.934-6.428 6.588-6.428c3.627 0 6.588 2.587 6.588 6.428s-2.96 6.428-6.588 6.428zm0-9.442c-1.467 0-2.72 1.28-2.72 3.067 0 1.787 1.253 3.067 2.72 3.067 1.44 0 2.721-1.28 2.721-3.067 0-1.787-1.28-3.067-2.721-3.067zM75.246 95.92h-2.934l-4.641-12.189h3.788l1.707 4.614c.24.64.48 1.547.667 2.347h.053c.187-.773.453-1.707.693-2.347l1.707-4.614h3.627L75.246 95.92zM91.86 89.092l-1.734 1.761h-5.921c.187.987 1.52 2.107 3.574 2.107 1.253 0 2.534-.374 3.334-.907l-.374 3.361c-.907.48-2.294.8-3.841.8-3.681 0-6.642-2.561-6.642-6.508 0-3.894 2.828-6.375 6.295-6.375 3.361 0 5.415 2.32 5.415 4.828.001.293-.053.693-.106.933zm-5.308-2.827c-1.147 0-2.107.88-2.347 1.974h4.081c0-.08.027-.16.027-.267-.001-.827-.721-1.707-1.761-1.707zM101.406 87.892a2.919 2.919 0 0 0-1.173-.293c-1.254 0-2.401.667-2.401 2.587v5.628h-3.92V83.731h3.867v2.694h.027c.4-1.894 1.813-2.907 3.44-2.907.374 0 .827.053 1.121.16l-.961 4.214zM117.806 86.932h-3.147v4.481c0 1.04.56 1.467 1.6 1.467.454 0 .72-.026 1.014-.16l-.347 2.96c-.374.187-1.04.32-1.814.32-2.72 0-4.347-1.44-4.347-3.841v-5.228h-2.027V83.73h2.027v-2.587l3.894-1.414v4.001h3.894l-.747 3.202zM127.593 95.813v-7.415c0-.88-.614-1.653-1.814-1.653-1.173 0-1.894.747-1.894 1.707v7.361h-3.921v-18.99h3.868v8.028h.026c.614-.934 1.734-1.494 3.414-1.494 2.667 0 4.241 1.494 4.241 4.054v8.402h-3.92zM145.06 89.092l-1.734 1.761h-5.921c.187.987 1.52 2.107 3.574 2.107 1.253 0 2.534-.374 3.334-.907l-.374 3.361c-.907.48-2.294.8-3.841.8-3.681 0-6.642-2.561-6.642-6.508 0-3.894 2.828-6.375 6.295-6.375 3.361 0 5.415 2.32 5.415 4.828.001.293-.053.693-.106.933zm-5.308-2.827c-1.147 0-2.107.88-2.347 1.974h4.081c0-.08.027-.16.027-.267 0-.827-.721-1.707-1.761-1.707zM159.911 96.16c-1.28 0-2.587-.4-3.067-.8v6.615h-3.813V83.731h3.44v1.494h.026c.667-1.227 2.054-1.84 3.734-1.84 2.961 0 5.814 2.24 5.814 6.375.001 3.893-2.773 6.4-6.134 6.4zm-.693-9.362a2.812 2.812 0 0 0-2.374 1.253v3.788c.374.507 1.174 1.067 2.374 1.067 1.707 0 2.907-1.307 2.907-3.041 0-1.733-1.2-3.067-2.907-3.067zM172.204 96.293c-2.48-.106-4.134-1.387-4.134-4.294V76.823h3.867v14.696c0 .987.561 1.521 1.627 1.601l-1.36 3.173zM183.778 96.347c-.72-.16-1.547-.72-1.867-1.6-.533.987-1.681 1.467-3.147 1.467-2.134 0-4.027-1.494-4.027-4 0-2.214 1.733-3.708 4.135-3.948l2.4-.24v-.4c0-.72-.587-1.2-1.895-1.2-1.173 0-2.48.374-3.36.934l-.693-2.961c.987-.64 2.641-1.066 4.241-1.066 3.2 0 5.468 1.467 5.468 4.374v3.947c0 1.414.533 2.161 1.467 2.507l-2.722 2.186zm-2.507-5.815l-1.467.133c-1.014.08-1.468.8-1.468 1.521 0 .64.48 1.173 1.228 1.173.934 0 1.707-.72 1.707-1.76v-1.067zM196.817 87.625c-.8-.507-1.627-.773-2.587-.773-1.707 0-3.067 1.227-3.067 2.987 0 1.734 1.36 2.987 3.147 2.987 1.014 0 1.787-.213 2.641-.667l-.347 3.334c-.801.374-1.841.587-2.961.587-3.388 0-6.535-2.4-6.535-6.294 0-3.948 3.175-6.321 6.455-6.321 1.601 0 2.907.32 3.975.907l-.721 3.253zM210.311 89.092l-1.733 1.761h-5.922c.188.987 1.521 2.107 3.574 2.107 1.254 0 2.534-.374 3.334-.907l-.373 3.361c-.907.48-2.294.8-3.841.8-3.681 0-6.642-2.561-6.642-6.508 0-3.894 2.827-6.375 6.295-6.375 3.36 0 5.414 2.32 5.414 4.828 0 .293-.053.693-.106.933zm-5.308-2.827c-1.147 0-2.107.88-2.348 1.974h4.081c0-.08.027-.16.027-.267.001-.827-.72-1.707-1.76-1.707zM217.83 87.438c-.667.747-.934 1.387-.934 2.107 0 .374.026.827.106 1.174l-3.36-.667c-.134-.534-.188-.934-.188-1.36 0-1.44.561-2.641 1.548-3.681.693-.72 1.04-1.227 1.04-2 0-.56-.533-1.2-1.467-1.2-.961 0-1.814.347-2.721.88l-.801-3.307c.987-.613 2.294-1.014 3.814-1.014 3.147 0 5.228 1.814 5.228 4.508.002 1.6-.692 2.853-2.265 4.56zm-2.428 8.749c-.72 0-2.214-1.494-2.214-2.214 0-.693 1.494-2.187 2.214-2.187.721 0 2.214 1.494 2.214 2.187 0 .72-1.467 2.214-2.214 2.214z"/></g></svg>