<?xml version="1.0" encoding="utf-8"?>
<!-- Generator: Adobe Illustrator 17.0.0, SVG Export Plug-In . SVG Version: 6.00 Build 0)  -->
<!DOCTYPE svg PUBLIC "-//W3C//DTD SVG 1.1//EN" "http://www.w3.org/Graphics/SVG/1.1/DTD/svg11.dtd">
<svg version="1.1" id="Layer_1" xmlns="http://www.w3.org/2000/svg" xmlns:xlink="http://www.w3.org/1999/xlink" x="0px" y="0px"
	 width="300px" height="600px" viewBox="0 0 300 600" style="enable-background:new 0 0 300 600;" xml:space="preserve">
<g>
	<path style="fill:#231F20;" d="M253.745,577.651c-1.159,0-2.169-0.81-2.169-2.31c0-1.698,1.25-3.518,2.959-4.397l0.899,0.42
		c-1.199,0.6-2.139,1.449-2.608,2.559c0.239-0.239,0.56-0.409,0.989-0.409c1.219,0,2.049,0.909,2.049,2.059
		C255.864,576.771,254.965,577.651,253.745,577.651z M253.755,574.353c-0.499,0-1.059,0.19-1.239,0.89
		c-0.01,0.11-0.01,0.22-0.01,0.33c0,0.72,0.6,1.319,1.26,1.319c0.659,0,1.179-0.51,1.179-1.27
		C254.944,574.902,254.455,574.353,253.755,574.353z"/>
	<path style="fill:#231F20;" d="M258.795,577.661c-1.159,0-2.179-1.06-2.179-3.318c0-2.239,1.02-3.309,2.179-3.309
		c1.14,0,2.18,1.069,2.18,3.309C260.975,576.602,259.935,577.661,258.795,577.661z M258.795,571.844c-0.649,0-1.259,0.7-1.259,2.499
		c0,1.819,0.609,2.509,1.259,2.509c0.64,0,1.26-0.689,1.26-2.509C260.055,572.544,259.435,571.844,258.795,571.844z"/>
	<path style="fill:#231F20;" d="M263.296,577.651c-0.489,0-0.949-0.11-1.209-0.25l-0.101-0.899c0.4,0.239,0.82,0.35,1.26,0.35
		c0.739,0,1.369-0.47,1.369-1.27c0-0.819-0.63-1.31-1.339-1.31c-0.47,0-0.8,0.061-1.1,0.17l0.1-3.278h2.788l-0.169,0.78h-1.75
		l-0.039,1.549c0.079-0.01,0.18-0.02,0.26-0.02c1.189,0,2.168,0.799,2.168,2.118C265.534,576.691,264.765,577.651,263.296,577.651z"
		/>
	<path style="fill:#231F20;" d="M267.476,577.541h-0.979l2.419-5.597h-2.929v-0.78h4.228L267.476,577.541z"/>
	<path style="fill:#231F20;" d="M271.566,577.541v-5.646l-1.1,0.109l0.17-0.76l1.839-0.17v6.467H271.566z"/>
	<path style="fill:#231F20;" d="M275.046,577.651c-0.489,0-0.949-0.11-1.209-0.25l-0.101-0.899c0.4,0.239,0.82,0.35,1.26,0.35
		c0.739,0,1.369-0.47,1.369-1.27c0-0.819-0.63-1.31-1.339-1.31c-0.47,0-0.8,0.061-1.1,0.17l0.1-3.278h2.788l-0.169,0.78h-1.75
		l-0.039,1.549c0.079-0.01,0.18-0.02,0.26-0.02c1.189,0,2.168,0.799,2.168,2.118C277.284,576.691,276.515,577.651,275.046,577.651z"
		/>
	<path style="fill:#231F20;" d="M281.425,577.651c-0.311-0.07-0.65-0.33-0.72-0.71c-0.21,0.529-0.689,0.71-1.21,0.71
		c-0.899,0-1.459-0.66-1.459-1.39c0-0.88,0.72-1.379,1.489-1.449l1.06-0.1v-0.29c0-0.41-0.24-0.739-0.88-0.739
		c-0.449,0-0.919,0.14-1.249,0.359l-0.18-0.75c0.409-0.27,0.93-0.39,1.479-0.39c1.009,0,1.738,0.57,1.738,1.64v1.829
		c0,0.409,0.22,0.649,0.51,0.699L281.425,577.651z M280.585,575.462l-0.869,0.08c-0.58,0.05-0.81,0.399-0.81,0.729
		c0,0.32,0.26,0.61,0.669,0.61c0.54,0,1.01-0.41,1.01-1.02V575.462z"/>
</g>
</svg>
