<?xml version="1.0" encoding="utf-8"?>
<!-- Generator: Adobe Illustrator 17.0.0, SVG Export Plug-In . SVG Version: 6.00 Build 0)  -->
<!DOCTYPE svg PUBLIC "-//W3C//DTD SVG 1.1//EN" "http://www.w3.org/Graphics/SVG/1.1/DTD/svg11.dtd">
<svg version="1.1" id="Layer_1" xmlns="http://www.w3.org/2000/svg" xmlns:xlink="http://www.w3.org/1999/xlink" x="0px" y="0px"
	 width="300px" height="600px" viewBox="0 0 300 600" style="enable-background:new 0 0 300 600;" xml:space="preserve">
<g>
	<path style="fill:#231F20;" d="M31.7,65.146l-4.561-6.695h-1.093v6.695h-3.975V48.129h6.215c2.907,0,5.495,1.947,5.495,5.148
		c0,1.974-1.174,3.601-2.614,4.268l5.414,7.602H31.7z M27.673,51.463h-1.627v3.814h1.627c1.067,0,2.134-0.587,2.134-1.894
		C29.807,52.104,28.74,51.463,27.673,51.463z"/>
	<path style="fill:#231F20;" d="M47.914,58.425l-1.734,1.761h-5.921c0.187,0.987,1.52,2.107,3.574,2.107
		c1.253,0,2.534-0.374,3.334-0.907l-0.374,3.361c-0.907,0.48-2.294,0.8-3.841,0.8c-3.681,0-6.642-2.561-6.642-6.508
		c0-3.894,2.828-6.375,6.295-6.375c3.361,0,5.415,2.32,5.415,4.828C48.021,57.785,47.967,58.185,47.914,58.425z M42.606,55.598
		c-1.147,0-2.107,0.88-2.347,1.974h4.081c0-0.08,0.027-0.16,0.027-0.267C44.366,56.478,43.646,55.598,42.606,55.598z"/>
	<path style="fill:#231F20;" d="M58.153,56.265h-3.147v4.481c0,1.04,0.56,1.467,1.6,1.467c0.454,0,0.72-0.026,1.014-0.16
		l-0.347,2.96c-0.374,0.187-1.041,0.32-1.814,0.32c-2.72,0-4.348-1.44-4.348-3.841v-5.228h-2.027v-3.201h2.027v-2.587l3.895-1.414
		v4.001H58.9L58.153,56.265z"/>
	<path style="fill:#231F20;" d="M62.312,51.41c-0.693,0-2.107-1.414-2.107-2.107c0-0.694,1.414-2.081,2.107-2.081
		s2.107,1.387,2.107,2.081C64.418,49.997,63.005,51.41,62.312,51.41z M60.338,65.146V53.064h3.947v12.083H60.338z"/>
	<path style="fill:#231F20;" d="M74.338,57.225c-0.24-0.133-0.773-0.293-1.173-0.293c-1.254,0-2.401,0.667-2.401,2.587v5.628h-3.92
		V53.064h3.867v2.694h0.027c0.4-1.894,1.813-2.907,3.44-2.907c0.374,0,0.827,0.053,1.121,0.16L74.338,57.225z"/>
	<path style="fill:#231F20;" d="M87.459,58.425l-1.733,1.761h-5.921c0.187,0.987,1.52,2.107,3.574,2.107
		c1.254,0,2.534-0.374,3.334-0.907l-0.374,3.361c-0.907,0.48-2.294,0.8-3.841,0.8c-3.681,0-6.642-2.561-6.642-6.508
		c0-3.894,2.827-6.375,6.295-6.375c3.36,0,5.415,2.32,5.415,4.828C87.566,57.785,87.512,58.185,87.459,58.425z M82.151,55.598
		c-1.147,0-2.107,0.88-2.347,1.974h4.081c0-0.08,0.027-0.16,0.027-0.267C83.912,56.478,83.191,55.598,82.151,55.598z"/>
	<path style="fill:#231F20;" d="M104.393,65.146v-7.415c0-0.88-0.427-1.653-1.707-1.653c-1.253,0-1.813,0.747-1.813,1.707v7.361
		h-3.921v-7.415c0-0.88-0.427-1.653-1.707-1.653c-1.253,0-1.814,0.747-1.814,1.707v7.361H89.51V53.064h3.628v1.627h0.026
		c0.48-1.28,1.681-2,3.574-2c1.733,0,3.041,0.693,3.574,1.974c0.507-1.173,1.92-1.974,3.734-1.974c2.748,0,4.268,1.494,4.268,4.054
		v8.402H104.393z"/>
	<path style="fill:#231F20;" d="M121.885,58.425l-1.734,1.761h-5.921c0.187,0.987,1.52,2.107,3.574,2.107
		c1.253,0,2.534-0.374,3.334-0.907l-0.374,3.361c-0.907,0.48-2.294,0.8-3.841,0.8c-3.681,0-6.642-2.561-6.642-6.508
		c0-3.894,2.828-6.375,6.295-6.375c3.361,0,5.415,2.32,5.415,4.828C121.992,57.785,121.938,58.185,121.885,58.425z M116.578,55.598
		c-1.147,0-2.107,0.88-2.347,1.974h4.081c0-0.08,0.027-0.16,0.027-0.267C118.338,56.478,117.618,55.598,116.578,55.598z"/>
	<path style="fill:#231F20;" d="M131.564,65.146v-7.415c0-0.88-0.587-1.653-1.787-1.653c-1.173,0-1.92,0.747-1.92,1.707v7.361h-3.92
		V53.064h3.601v1.627h0.026c0.48-1.28,1.734-2,3.681-2c2.641,0,4.241,1.494,4.241,4.054v8.402H131.564z"/>
	<path style="fill:#231F20;" d="M145.911,56.265h-3.147v4.481c0,1.04,0.56,1.467,1.6,1.467c0.454,0,0.72-0.026,1.014-0.16
		l-0.347,2.96c-0.374,0.187-1.041,0.32-1.814,0.32c-2.72,0-4.348-1.44-4.348-3.841v-5.228h-2.027v-3.201h2.027v-2.587l3.895-1.414
		v4.001h3.894L145.911,56.265z"/>
	<path style="fill:#231F20;" d="M162.551,65.68c-0.72-0.16-1.547-0.72-1.867-1.6c-0.533,0.987-1.68,1.467-3.147,1.467
		c-2.134,0-4.027-1.494-4.027-4c0-2.214,1.733-3.708,4.135-3.948l2.4-0.24v-0.4c0-0.72-0.587-1.2-1.894-1.2
		c-1.174,0-2.481,0.374-3.361,0.934l-0.693-2.961c0.987-0.64,2.641-1.066,4.241-1.066c3.2,0,5.468,1.467,5.468,4.374v3.947
		c0,1.414,0.533,2.161,1.467,2.507L162.551,65.68z M160.044,59.865l-1.468,0.133c-1.013,0.08-1.467,0.8-1.467,1.521
		c0,0.64,0.48,1.173,1.228,1.173c0.934,0,1.707-0.72,1.707-1.76V59.865z"/>
	<path style="fill:#231F20;" d="M175.59,56.958c-0.8-0.507-1.627-0.773-2.587-0.773c-1.707,0-3.067,1.227-3.067,2.987
		c0,1.734,1.36,2.987,3.147,2.987c1.014,0,1.787-0.213,2.641-0.667l-0.347,3.334c-0.801,0.374-1.841,0.587-2.961,0.587
		c-3.388,0-6.535-2.4-6.535-6.294c0-3.948,3.175-6.321,6.455-6.321c1.601,0,2.907,0.32,3.975,0.907L175.59,56.958z"/>
	<path style="fill:#231F20;" d="M187.216,56.958c-0.8-0.507-1.627-0.773-2.587-0.773c-1.707,0-3.067,1.227-3.067,2.987
		c0,1.734,1.36,2.987,3.147,2.987c1.014,0,1.787-0.213,2.641-0.667l-0.347,3.334c-0.801,0.374-1.841,0.587-2.961,0.587
		c-3.388,0-6.535-2.4-6.535-6.294c0-3.948,3.175-6.321,6.455-6.321c1.601,0,2.907,0.32,3.975,0.907L187.216,56.958z"/>
	<path style="fill:#231F20;" d="M195.722,65.52c-3.654,0-6.589-2.587-6.589-6.428s2.935-6.428,6.589-6.428
		c3.627,0,6.588,2.587,6.588,6.428S199.349,65.52,195.722,65.52z M195.722,56.078c-1.468,0-2.721,1.28-2.721,3.067
		c0,1.787,1.253,3.067,2.721,3.067c1.44,0,2.72-1.28,2.72-3.067C198.441,57.358,197.162,56.078,195.722,56.078z"/>
	<path style="fill:#231F20;" d="M212.202,65.146v-1.654h-0.026c-0.48,1.28-1.761,2-3.708,2c-2.64,0-4.24-1.467-4.24-4.027v-8.402
		h3.921v7.415c0,0.88,0.613,1.653,1.813,1.653c1.174,0,1.894-0.773,1.894-1.733v-7.335h3.921v12.083H212.202z"/>
	<path style="fill:#231F20;" d="M225.936,65.146v-7.415c0-0.88-0.587-1.653-1.787-1.653c-1.174,0-1.92,0.747-1.92,1.707v7.361
		h-3.921V53.064h3.601v1.627h0.026c0.48-1.28,1.734-2,3.681-2c2.641,0,4.241,1.494,4.241,4.054v8.402H225.936z"/>
	<path style="fill:#231F20;" d="M240.282,56.265h-3.147v4.481c0,1.04,0.56,1.467,1.601,1.467c0.453,0,0.72-0.026,1.013-0.16
		l-0.347,2.96c-0.373,0.187-1.04,0.32-1.813,0.32c-2.721,0-4.348-1.44-4.348-3.841v-5.228h-2.027v-3.201h2.027v-2.587l3.895-1.414
		v4.001h3.895L240.282,56.265z"/>
	<path style="fill:#231F20;" d="M246.148,65.413c-1.653,0-2.854-0.347-3.841-0.854l-0.347-3.467
		c1.066,0.747,2.454,1.307,3.787,1.307c0.721,0,1.174-0.374,1.174-0.827c0-0.507-0.4-0.72-1.094-0.934
		c-2.32-0.667-3.707-1.84-3.707-3.947c0-2.374,1.92-3.894,4.534-3.894c1.493,0,2.961,0.4,3.574,0.72l-0.667,2.88
		c-0.587-0.32-1.547-0.667-2.507-0.667c-0.641,0-1.067,0.293-1.067,0.774c0,0.453,0.32,0.693,1.067,0.88
		c2.72,0.72,3.841,2.081,3.841,4.107C250.896,63.546,249.402,65.413,246.148,65.413z"/>
</g>
<g>
	<path style="fill:#231F20;" d="M30.42,96.347c-0.72-0.16-1.547-0.72-1.867-1.6c-0.533,0.987-1.68,1.467-3.147,1.467
		c-2.134,0-4.028-1.494-4.028-4c0-2.214,1.734-3.708,4.134-3.948l2.4-0.24v-0.4c0-0.72-0.586-1.2-1.894-1.2
		c-1.173,0-2.48,0.374-3.361,0.934l-0.693-2.961c0.987-0.64,2.641-1.066,4.241-1.066c3.201,0,5.468,1.467,5.468,4.374v3.947
		c0,1.414,0.533,2.161,1.467,2.507L30.42,96.347z M27.913,90.532l-1.467,0.133c-1.014,0.08-1.467,0.8-1.467,1.521
		c0,0.64,0.48,1.173,1.227,1.173c0.934,0,1.707-0.72,1.707-1.76V90.532z"/>
	<path style="fill:#231F20;" d="M38.579,96.293c-2.48-0.106-4.134-1.387-4.134-4.294V76.823h3.868v14.696
		c0,0.987,0.56,1.521,1.627,1.601L38.579,96.293z"/>
	<path style="fill:#231F20;" d="M45.619,96.293c-2.48-0.106-4.134-1.387-4.134-4.294V76.823h3.868v14.696
		c0,0.987,0.56,1.521,1.627,1.601L45.619,96.293z"/>
	<path style="fill:#231F20;" d="M60.712,96.187c-3.654,0-6.588-2.587-6.588-6.428s2.934-6.428,6.588-6.428
		c3.627,0,6.588,2.587,6.588,6.428S64.34,96.187,60.712,96.187z M60.712,86.745c-1.467,0-2.72,1.28-2.72,3.067
		c0,1.787,1.253,3.067,2.72,3.067c1.44,0,2.721-1.28,2.721-3.067C63.433,88.025,62.153,86.745,60.712,86.745z"/>
	<path style="fill:#231F20;" d="M75.246,95.92h-2.934l-4.641-12.189h3.788l1.707,4.614c0.24,0.64,0.48,1.547,0.667,2.347h0.053
		c0.187-0.773,0.453-1.707,0.693-2.347l1.707-4.614h3.627L75.246,95.92z"/>
	<path style="fill:#231F20;" d="M91.86,89.092l-1.734,1.761h-5.921c0.187,0.987,1.52,2.107,3.574,2.107
		c1.253,0,2.534-0.374,3.334-0.907l-0.374,3.361c-0.907,0.48-2.294,0.8-3.841,0.8c-3.681,0-6.642-2.561-6.642-6.508
		c0-3.894,2.828-6.375,6.295-6.375c3.361,0,5.415,2.32,5.415,4.828C91.967,88.452,91.913,88.852,91.86,89.092z M86.552,86.265
		c-1.147,0-2.107,0.88-2.347,1.974h4.081c0-0.08,0.027-0.16,0.027-0.267C88.312,87.145,87.592,86.265,86.552,86.265z"/>
	<path style="fill:#231F20;" d="M101.406,87.892c-0.24-0.133-0.773-0.293-1.173-0.293c-1.254,0-2.401,0.667-2.401,2.587v5.628h-3.92
		V83.731h3.867v2.694h0.027c0.4-1.894,1.813-2.907,3.44-2.907c0.374,0,0.827,0.053,1.121,0.16L101.406,87.892z"/>
	<path style="fill:#231F20;" d="M117.806,86.932h-3.147v4.481c0,1.04,0.56,1.467,1.6,1.467c0.454,0,0.72-0.026,1.014-0.16
		l-0.347,2.96c-0.374,0.187-1.04,0.32-1.814,0.32c-2.72,0-4.347-1.44-4.347-3.841v-5.228h-2.027v-3.201h2.027v-2.587l3.894-1.414
		v4.001h3.894L117.806,86.932z"/>
	<path style="fill:#231F20;" d="M127.593,95.813v-7.415c0-0.88-0.614-1.653-1.814-1.653c-1.173,0-1.894,0.747-1.894,1.707v7.361
		h-3.921V76.823h3.868v8.028h0.026c0.614-0.934,1.734-1.494,3.414-1.494c2.667,0,4.241,1.494,4.241,4.054v8.402H127.593z"/>
	<path style="fill:#231F20;" d="M145.06,89.092l-1.734,1.761h-5.921c0.187,0.987,1.52,2.107,3.574,2.107
		c1.253,0,2.534-0.374,3.334-0.907l-0.374,3.361c-0.907,0.48-2.294,0.8-3.841,0.8c-3.681,0-6.642-2.561-6.642-6.508
		c0-3.894,2.828-6.375,6.295-6.375c3.361,0,5.415,2.32,5.415,4.828C145.167,88.452,145.113,88.852,145.06,89.092z M139.752,86.265
		c-1.147,0-2.107,0.88-2.347,1.974h4.081c0-0.08,0.027-0.16,0.027-0.267C141.513,87.145,140.792,86.265,139.752,86.265z"/>
	<path style="fill:#231F20;" d="M159.911,96.16c-1.28,0-2.587-0.4-3.067-0.8v6.615h-3.813V83.731h3.44v1.494h0.026
		c0.667-1.227,2.054-1.84,3.734-1.84c2.961,0,5.814,2.24,5.814,6.375C166.046,93.653,163.272,96.16,159.911,96.16z M159.218,86.798
		c-1.146,0-1.947,0.613-2.374,1.253v3.788c0.374,0.507,1.174,1.067,2.374,1.067c1.707,0,2.907-1.307,2.907-3.041
		C162.125,88.132,160.925,86.798,159.218,86.798z"/>
	<path style="fill:#231F20;" d="M172.204,96.293c-2.48-0.106-4.134-1.387-4.134-4.294V76.823h3.867v14.696
		c0,0.987,0.561,1.521,1.627,1.601L172.204,96.293z"/>
	<path style="fill:#231F20;" d="M183.778,96.347c-0.72-0.16-1.547-0.72-1.867-1.6c-0.533,0.987-1.681,1.467-3.147,1.467
		c-2.134,0-4.027-1.494-4.027-4c0-2.214,1.733-3.708,4.135-3.948l2.4-0.24v-0.4c0-0.72-0.587-1.2-1.895-1.2
		c-1.173,0-2.48,0.374-3.36,0.934l-0.693-2.961c0.987-0.64,2.641-1.066,4.241-1.066c3.2,0,5.468,1.467,5.468,4.374v3.947
		c0,1.414,0.533,2.161,1.467,2.507L183.778,96.347z M181.271,90.532l-1.467,0.133c-1.014,0.08-1.468,0.8-1.468,1.521
		c0,0.64,0.48,1.173,1.228,1.173c0.934,0,1.707-0.72,1.707-1.76V90.532z"/>
	<path style="fill:#231F20;" d="M196.817,87.625c-0.8-0.507-1.627-0.773-2.587-0.773c-1.707,0-3.067,1.227-3.067,2.987
		c0,1.734,1.36,2.987,3.147,2.987c1.014,0,1.787-0.213,2.641-0.667l-0.347,3.334c-0.801,0.374-1.841,0.587-2.961,0.587
		c-3.388,0-6.535-2.4-6.535-6.294c0-3.948,3.175-6.321,6.455-6.321c1.601,0,2.907,0.32,3.975,0.907L196.817,87.625z"/>
	<path style="fill:#231F20;" d="M210.311,89.092l-1.733,1.761h-5.922c0.188,0.987,1.521,2.107,3.574,2.107
		c1.254,0,2.534-0.374,3.334-0.907l-0.373,3.361c-0.907,0.48-2.294,0.8-3.841,0.8c-3.681,0-6.642-2.561-6.642-6.508
		c0-3.894,2.827-6.375,6.295-6.375c3.36,0,5.414,2.32,5.414,4.828C210.417,88.452,210.364,88.852,210.311,89.092z M205.003,86.265
		c-1.147,0-2.107,0.88-2.348,1.974h4.081c0-0.08,0.027-0.16,0.027-0.267C206.764,87.145,206.043,86.265,205.003,86.265z"/>
	<path style="fill:#231F20;" d="M217.83,87.438c-0.667,0.747-0.934,1.387-0.934,2.107c0,0.374,0.026,0.827,0.106,1.174l-3.36-0.667
		c-0.134-0.534-0.188-0.934-0.188-1.36c0-1.44,0.561-2.641,1.548-3.681c0.693-0.72,1.04-1.227,1.04-2c0-0.56-0.533-1.2-1.467-1.2
		c-0.961,0-1.814,0.347-2.721,0.88l-0.801-3.307c0.987-0.613,2.294-1.014,3.814-1.014c3.147,0,5.228,1.814,5.228,4.508
		C220.097,84.478,219.403,85.731,217.83,87.438z M215.402,96.187c-0.72,0-2.214-1.494-2.214-2.214c0-0.693,1.494-2.187,2.214-2.187
		c0.721,0,2.214,1.494,2.214,2.187C217.616,94.693,216.149,96.187,215.402,96.187z"/>
</g>
</svg>
