<?xml version="1.0" encoding="utf-8"?>
<!-- Generator: Adobe Illustrator 17.0.0, SVG Export Plug-In . SVG Version: 6.00 Build 0)  -->
<!DOCTYPE svg PUBLIC "-//W3C//DTD SVG 1.1//EN" "http://www.w3.org/Graphics/SVG/1.1/DTD/svg11.dtd">
<svg version="1.1" id="Layer_3" xmlns="http://www.w3.org/2000/svg" xmlns:xlink="http://www.w3.org/1999/xlink" x="0px" y="0px"
	 width="300px" height="600px" viewBox="0 0 300 600" style="enable-background:new 0 0 300 600;" xml:space="preserve">
<style type="text/css">
	.st0{fill:#231F20;}
</style>
<g>
	<path class="st0" d="M40.421,62.437l-1.414-3.841h-5.415l-1.414,3.841h-3.895l6.695-17.15h2.854l6.695,17.15H40.421z M36.82,52.222
		c-0.16-0.454-0.373-1.014-0.507-1.574H36.26c-0.133,0.56-0.32,1.147-0.48,1.574l-1.147,3.147h3.334L36.82,52.222z"/>
	<path class="st0" d="M60.02,48.808v13.629h-4.134V48.808h-4.881V45.42h13.896v3.388H60.02z"/>
	<path class="st0" d="M66.604,62.437V45.42h4.134v17.017H66.604z"/>
	<path class="st0" d="M84.58,62.437l-1.414-3.841h-5.414l-1.414,3.841h-3.894l6.695-17.15h2.854l6.695,17.15H84.58z M80.979,52.222
		c-0.16-0.454-0.374-1.014-0.507-1.574h-0.053c-0.133,0.56-0.32,1.147-0.48,1.574l-1.147,3.147h3.334L80.979,52.222z"/>
	<path class="st0" d="M101.86,62.437l-1.414-3.841h-5.415l-1.414,3.841h-3.895l6.695-17.15h2.854l6.695,17.15H101.86z
		 M98.259,52.222c-0.16-0.454-0.373-1.014-0.507-1.574h-0.053c-0.133,0.56-0.32,1.147-0.48,1.574l-1.147,3.147h3.334L98.259,52.222z
		"/>
	<path class="st0" d="M121.992,62.971c-0.72-0.16-1.547-0.72-1.867-1.601c-0.533,0.987-1.68,1.467-3.147,1.467
		c-2.134,0-4.028-1.494-4.028-4c0-2.214,1.734-3.708,4.134-3.948l2.4-0.24v-0.4c0-0.72-0.586-1.2-1.894-1.2
		c-1.174,0-2.48,0.374-3.361,0.934l-0.693-2.96c0.987-0.641,2.641-1.067,4.241-1.067c3.201,0,5.468,1.467,5.468,4.375v3.948
		c0,1.414,0.534,2.16,1.467,2.507L121.992,62.971z M119.484,57.156l-1.467,0.133c-1.014,0.08-1.467,0.8-1.467,1.521
		c0,0.64,0.48,1.174,1.227,1.174c0.934,0,1.707-0.72,1.707-1.761V57.156z"/>
	<path class="st0" d="M134.978,62.437v-1.494h-0.026c-0.667,1.227-2.054,1.84-3.734,1.84c-2.96,0-5.814-2.24-5.814-6.375
		c0-3.895,2.774-6.428,6.135-6.428c1.28,0,2.587,0.427,3.067,0.827v-7.361h3.814v18.991H134.978z M134.604,54.515
		c-0.374-0.506-1.174-1.093-2.374-1.093c-1.707,0-2.907,1.333-2.907,3.067c0,1.733,1.2,3.067,2.907,3.067
		c1.147,0,1.947-0.614,2.374-1.254V54.515z"/>
	<path class="st0" d="M147.43,62.544h-2.934l-4.641-12.189h3.788l1.707,4.614c0.24,0.64,0.48,1.547,0.667,2.347h0.053
		c0.187-0.773,0.454-1.707,0.693-2.347l1.707-4.614h3.627L147.43,62.544z"/>
	<path class="st0" d="M155.535,48.701c-0.693,0-2.106-1.414-2.106-2.107s1.413-2.081,2.106-2.081c0.694,0,2.107,1.387,2.107,2.081
		S156.229,48.701,155.535,48.701z M153.562,62.437V50.354h3.948v12.083H153.562z"/>
	<path class="st0" d="M163.962,62.704c-1.653,0-2.854-0.347-3.841-0.854l-0.347-3.467c1.066,0.747,2.454,1.307,3.787,1.307
		c0.721,0,1.174-0.374,1.174-0.827c0-0.507-0.4-0.72-1.094-0.934c-2.32-0.667-3.707-1.84-3.707-3.947
		c0-2.374,1.92-3.894,4.534-3.894c1.493,0,2.961,0.4,3.574,0.72l-0.667,2.881c-0.587-0.32-1.547-0.667-2.507-0.667
		c-0.641,0-1.067,0.293-1.067,0.773c0,0.454,0.32,0.694,1.067,0.88c2.721,0.72,3.841,2.081,3.841,4.107
		C168.71,60.837,167.216,62.704,163.962,62.704z"/>
	<path class="st0" d="M176.603,62.811c-3.654,0-6.589-2.587-6.589-6.428s2.935-6.428,6.589-6.428c3.627,0,6.588,2.587,6.588,6.428
		S180.229,62.811,176.603,62.811z M176.603,53.368c-1.468,0-2.721,1.28-2.721,3.067s1.253,3.067,2.721,3.067
		c1.44,0,2.72-1.28,2.72-3.067S178.043,53.368,176.603,53.368z"/>
	<path class="st0" d="M192.655,54.515c-0.24-0.133-0.774-0.293-1.174-0.293c-1.254,0-2.4,0.667-2.4,2.587v5.628h-3.921V50.354h3.867
		v2.694h0.026c0.4-1.894,1.814-2.907,3.441-2.907c0.373,0,0.826,0.053,1.12,0.16L192.655,54.515z"/>
	<path class="st0" d="M210.201,54.249c-0.8-0.507-1.627-0.773-2.587-0.773c-1.707,0-3.067,1.227-3.067,2.987
		c0,1.734,1.36,2.987,3.147,2.987c1.014,0,1.787-0.213,2.641-0.667l-0.347,3.334c-0.801,0.373-1.841,0.586-2.961,0.586
		c-3.388,0-6.535-2.4-6.535-6.294c0-3.948,3.175-6.321,6.455-6.321c1.601,0,2.907,0.32,3.975,0.907L210.201,54.249z"/>
	<path class="st0" d="M221.268,62.971c-0.72-0.16-1.547-0.72-1.867-1.601c-0.533,0.987-1.68,1.467-3.147,1.467
		c-2.134,0-4.027-1.494-4.027-4c0-2.214,1.733-3.708,4.135-3.948l2.4-0.24v-0.4c0-0.72-0.587-1.2-1.894-1.2
		c-1.174,0-2.481,0.374-3.361,0.934l-0.693-2.96c0.987-0.641,2.641-1.067,4.241-1.067c3.2,0,5.468,1.467,5.468,4.375v3.948
		c0,1.414,0.533,2.16,1.467,2.507L221.268,62.971z M218.761,57.156l-1.468,0.133c-1.013,0.08-1.467,0.8-1.467,1.521
		c0,0.64,0.48,1.174,1.228,1.174c0.934,0,1.707-0.72,1.707-1.761V57.156z"/>
	<path class="st0" d="M232.974,62.437v-7.415c0-0.88-0.587-1.654-1.787-1.654c-1.174,0-1.92,0.747-1.92,1.707v7.362h-3.921V50.354
		h3.601v1.627h0.026c0.48-1.28,1.734-2,3.681-2c2.641,0,4.241,1.494,4.241,4.054v8.402H232.974z"/>
</g>
<g>
	<path class="st0" d="M36.927,90.437v-7.415c0-0.88-0.614-1.654-1.814-1.654c-1.173,0-1.894,0.747-1.894,1.707v7.362h-3.921V71.446
		h3.868v8.028h0.026c0.614-0.934,1.734-1.494,3.414-1.494c2.667,0,4.241,1.494,4.241,4.054v8.402H36.927z"/>
	<path class="st0" d="M54.394,83.716l-1.734,1.76h-5.921c0.187,0.987,1.52,2.107,3.574,2.107c1.253,0,2.534-0.374,3.334-0.907
		l-0.374,3.361c-0.907,0.48-2.294,0.8-3.841,0.8c-3.681,0-6.642-2.561-6.642-6.508c0-3.894,2.828-6.375,6.295-6.375
		c3.361,0,5.415,2.321,5.415,4.828C54.501,83.075,54.447,83.476,54.394,83.716z M49.086,80.888c-1.147,0-2.107,0.88-2.347,1.974
		h4.081c0-0.08,0.027-0.16,0.027-0.267C50.847,81.769,50.126,80.888,49.086,80.888z"/>
	<path class="st0" d="M60.579,90.917c-2.48-0.106-4.134-1.387-4.134-4.294V71.446h3.868v14.696c0,0.987,0.56,1.521,1.627,1.601
		L60.579,90.917z"/>
	<path class="st0" d="M70.393,90.784c-1.28,0-2.587-0.4-3.067-0.8v6.615h-3.814V78.354h3.441v1.494h0.027
		c0.667-1.227,2.054-1.84,3.734-1.84c2.961,0,5.815,2.24,5.815,6.375C76.527,88.276,73.753,90.784,70.393,90.784z M69.699,81.422
		c-1.147,0-1.947,0.613-2.374,1.253v3.788c0.374,0.507,1.173,1.067,2.374,1.067c1.707,0,2.907-1.307,2.907-3.041
		C72.606,82.755,71.406,81.422,69.699,81.422z"/>
	<path class="st0" d="M91.885,89.237c-1.84,4.854-3.761,6.615-6.028,7.495l-2.401-2.4c1.947-0.747,3.441-2.16,4.428-4.721
		l-4.348-11.256h3.788l1.76,4.694c0.267,0.693,0.534,1.521,0.72,2.374h0.053c0.24-0.827,0.507-1.681,0.774-2.374l1.76-4.694h3.601
		L91.885,89.237z"/>
	<path class="st0" d="M102.951,90.811c-3.654,0-6.588-2.587-6.588-6.428s2.934-6.428,6.588-6.428c3.627,0,6.588,2.587,6.588,6.428
		S106.579,90.811,102.951,90.811z M102.951,81.368c-1.467,0-2.721,1.28-2.721,3.067s1.254,3.067,2.721,3.067
		c1.44,0,2.721-1.28,2.721-3.067S104.392,81.368,102.951,81.368z"/>
	<path class="st0" d="M119.431,90.437v-1.654h-0.026c-0.48,1.28-1.761,2-3.708,2c-2.641,0-4.241-1.467-4.241-4.027v-8.402h3.92
		v7.415c0,0.88,0.614,1.653,1.814,1.653c1.173,0,1.894-0.773,1.894-1.733v-7.335h3.921v12.083H119.431z"/>
	<path class="st0" d="M140.63,82.249c-0.8-0.507-1.627-0.773-2.587-0.773c-1.707,0-3.067,1.227-3.067,2.987
		c0,1.734,1.36,2.987,3.147,2.987c1.013,0,1.787-0.213,2.64-0.667l-0.347,3.334c-0.8,0.373-1.84,0.586-2.96,0.586
		c-3.387,0-6.535-2.4-6.535-6.294c0-3.948,3.174-6.321,6.455-6.321c1.601,0,2.907,0.32,3.974,0.907L140.63,82.249z"/>
	<path class="st0" d="M149.109,90.811c-3.654,0-6.588-2.587-6.588-6.428s2.934-6.428,6.588-6.428c3.628,0,6.588,2.587,6.588,6.428
		S152.737,90.811,149.109,90.811z M149.109,81.368c-1.467,0-2.721,1.28-2.721,3.067s1.254,3.067,2.721,3.067
		c1.44,0,2.721-1.28,2.721-3.067S150.55,81.368,149.109,81.368z"/>
	<path class="st0" d="M165.296,90.437v-7.415c0-0.88-0.587-1.654-1.787-1.654c-1.174,0-1.92,0.747-1.92,1.707v7.362h-3.921V78.354
		h3.601v1.627h0.026c0.48-1.28,1.734-2,3.681-2c2.641,0,4.241,1.494,4.241,4.054v8.402H165.296z"/>
	<path class="st0" d="M175.588,90.704c-1.653,0-2.854-0.347-3.841-0.854l-0.347-3.467c1.066,0.747,2.454,1.307,3.787,1.307
		c0.721,0,1.174-0.374,1.174-0.827c0-0.507-0.4-0.72-1.094-0.934c-2.32-0.667-3.707-1.84-3.707-3.947
		c0-2.374,1.92-3.894,4.534-3.894c1.493,0,2.961,0.4,3.574,0.72l-0.667,2.881c-0.587-0.32-1.547-0.667-2.507-0.667
		c-0.641,0-1.067,0.293-1.067,0.773c0,0.454,0.32,0.694,1.067,0.88c2.72,0.72,3.841,2.081,3.841,4.107
		C180.336,88.837,178.842,90.704,175.588,90.704z"/>
	<path class="st0" d="M188.229,90.811c-3.654,0-6.589-2.587-6.589-6.428s2.935-6.428,6.589-6.428c3.627,0,6.588,2.587,6.588,6.428
		S191.855,90.811,188.229,90.811z M188.229,81.368c-1.468,0-2.721,1.28-2.721,3.067s1.253,3.067,2.721,3.067
		c1.439,0,2.721-1.28,2.721-3.067S189.668,81.368,188.229,81.368z"/>
	<path class="st0" d="M200.947,90.917c-2.48-0.106-4.134-1.387-4.134-4.294V71.446h3.867v14.696c0,0.987,0.561,1.521,1.627,1.601
		L200.947,90.917z"/>
	<path class="st0" d="M205.906,76.701c-0.693,0-2.106-1.414-2.106-2.107s1.413-2.081,2.106-2.081c0.694,0,2.107,1.387,2.107,2.081
		S206.601,76.701,205.906,76.701z M203.933,90.437V78.354h3.948v12.083H203.933z"/>
	<path class="st0" d="M219.455,90.437v-1.494h-0.027c-0.666,1.227-2.054,1.84-3.733,1.84c-2.961,0-5.815-2.24-5.815-6.375
		c0-3.895,2.774-6.428,6.135-6.428c1.28,0,2.588,0.427,3.067,0.827v-7.361h3.814v18.991H219.455z M219.081,82.515
		c-0.373-0.506-1.173-1.093-2.374-1.093c-1.707,0-2.907,1.333-2.907,3.067c0,1.733,1.2,3.067,2.907,3.067
		c1.147,0,1.947-0.614,2.374-1.254V82.515z"/>
	<path class="st0" d="M233.96,90.971c-0.72-0.16-1.547-0.72-1.867-1.601c-0.533,0.987-1.681,1.467-3.147,1.467
		c-2.134,0-4.027-1.494-4.027-4c0-2.214,1.733-3.708,4.135-3.948l2.4-0.24v-0.4c0-0.72-0.587-1.2-1.895-1.2
		c-1.173,0-2.48,0.374-3.36,0.934l-0.693-2.96c0.987-0.641,2.641-1.067,4.241-1.067c3.2,0,5.468,1.467,5.468,4.375v3.948
		c0,1.414,0.533,2.16,1.467,2.507L233.96,90.971z M231.453,85.156l-1.467,0.133c-1.014,0.08-1.468,0.8-1.468,1.521
		c0,0.64,0.48,1.174,1.228,1.174c0.934,0,1.707-0.72,1.707-1.761V85.156z"/>
	<path class="st0" d="M245.854,81.555h-3.147v4.481c0,1.04,0.56,1.467,1.601,1.467c0.453,0,0.72-0.026,1.014-0.16l-0.348,2.961
		c-0.373,0.187-1.04,0.32-1.813,0.32c-2.721,0-4.348-1.44-4.348-3.841v-5.228h-2.026v-3.201h2.026v-2.587l3.895-1.414v4.001h3.894
		L245.854,81.555z"/>
	<path class="st0" d="M258.787,83.716l-1.733,1.76h-5.922c0.188,0.987,1.521,2.107,3.574,2.107c1.254,0,2.534-0.374,3.334-0.907
		l-0.373,3.361c-0.907,0.48-2.294,0.8-3.841,0.8c-3.681,0-6.642-2.561-6.642-6.508c0-3.894,2.827-6.375,6.295-6.375
		c3.36,0,5.414,2.321,5.414,4.828C258.894,83.075,258.841,83.476,258.787,83.716z M253.479,80.888c-1.147,0-2.107,0.88-2.348,1.974
		h4.081c0-0.08,0.027-0.16,0.027-0.267C255.24,81.769,254.52,80.888,253.479,80.888z"/>
</g>
<g>
	<path class="st0" d="M38.447,110.248c-0.8-0.507-1.627-0.773-2.587-0.773c-1.707,0-3.067,1.227-3.067,2.987
		c0,1.734,1.36,2.987,3.147,2.987c1.013,0,1.787-0.213,2.641-0.667l-0.347,3.334c-0.8,0.373-1.84,0.586-2.96,0.586
		c-3.387,0-6.535-2.4-6.535-6.294c0-3.948,3.174-6.321,6.455-6.321c1.601,0,2.907,0.32,3.974,0.907L38.447,110.248z"/>
	<path class="st0" d="M46.926,118.81c-3.654,0-6.588-2.587-6.588-6.428s2.934-6.428,6.588-6.428c3.627,0,6.588,2.587,6.588,6.428
		S50.554,118.81,46.926,118.81z M46.926,109.367c-1.467,0-2.72,1.28-2.72,3.067s1.253,3.067,2.72,3.067
		c1.44,0,2.721-1.28,2.721-3.067S48.367,109.367,46.926,109.367z"/>
	<path class="st0" d="M63.113,118.436v-7.415c0-0.88-0.586-1.654-1.787-1.654c-1.173,0-1.92,0.747-1.92,1.707v7.362h-3.921v-12.083
		h3.601v1.627h0.027c0.48-1.28,1.733-2,3.681-2c2.641,0,4.241,1.494,4.241,4.054v8.402H63.113z"/>
	<path class="st0" d="M77.939,102.939c-0.454-0.187-1.094-0.32-1.574-0.32c-1.44,0-2.187,0.854-2.187,2.587v1.147h3.467
		l-0.773,3.201h-2.694v8.882h-3.788v-8.882h-1.84v-3.201h1.84v-1.414c0-3.681,2.374-5.495,5.415-5.495c1.12,0,2.241,0.133,2.854,0.4
		L77.939,102.939z"/>
	<path class="st0" d="M81.297,104.7c-0.693,0-2.107-1.414-2.107-2.107s1.414-2.081,2.107-2.081s2.107,1.387,2.107,2.081
		S81.991,104.7,81.297,104.7z M79.324,118.436v-12.083h3.947v12.083H79.324z"/>
	<path class="st0" d="M95.032,118.436v-1.494h-0.026c-0.667,1.227-2.054,1.84-3.734,1.84c-2.96,0-5.814-2.24-5.814-6.375
		c0-3.895,2.774-6.428,6.135-6.428c1.28,0,2.587,0.427,3.067,0.827v-7.361h3.814v18.991H95.032z M94.658,110.514
		c-0.373-0.506-1.173-1.093-2.374-1.093c-1.707,0-2.907,1.333-2.907,3.067c0,1.733,1.2,3.067,2.907,3.067
		c1.147,0,1.947-0.614,2.374-1.254V110.514z"/>
	<path class="st0" d="M112.072,111.715l-1.734,1.76h-5.921c0.187,0.987,1.52,2.107,3.574,2.107c1.253,0,2.534-0.374,3.334-0.907
		l-0.374,3.361c-0.907,0.48-2.294,0.8-3.841,0.8c-3.681,0-6.642-2.561-6.642-6.508c0-3.894,2.828-6.375,6.295-6.375
		c3.361,0,5.415,2.321,5.415,4.828C112.179,111.074,112.125,111.475,112.072,111.715z M106.764,108.887
		c-1.147,0-2.107,0.88-2.347,1.974h4.081c0-0.08,0.027-0.16,0.027-0.267C108.524,109.768,107.804,108.887,106.764,108.887z"/>
	<path class="st0" d="M121.75,118.436v-7.415c0-0.88-0.586-1.654-1.787-1.654c-1.173,0-1.92,0.747-1.92,1.707v7.362h-3.921v-12.083
		h3.601v1.627h0.027c0.48-1.28,1.733-2,3.681-2c2.641,0,4.241,1.494,4.241,4.054v8.402H121.75z"/>
	<path class="st0" d="M136.097,109.554h-3.147v4.481c0,1.04,0.56,1.467,1.6,1.467c0.454,0,0.72-0.026,1.014-0.16l-0.347,2.961
		c-0.374,0.187-1.04,0.32-1.814,0.32c-2.72,0-4.347-1.44-4.347-3.841v-5.228h-2.027v-3.201h2.027v-2.587l3.894-1.414v4.001h3.894
		L136.097,109.554z"/>
	<path class="st0" d="M142.336,118.916c-2.48-0.106-4.134-1.387-4.134-4.294V99.445h3.868v14.696c0,0.987,0.56,1.521,1.627,1.601
		L142.336,118.916z"/>
	<path class="st0" d="M152.203,117.236c-1.84,4.854-3.761,6.615-6.028,7.495l-2.401-2.4c1.947-0.747,3.441-2.16,4.428-4.721
		l-4.348-11.256h3.788l1.76,4.694c0.267,0.693,0.534,1.521,0.72,2.374h0.053c0.24-0.827,0.507-1.681,0.773-2.374l1.761-4.694h3.601
		L152.203,117.236z"/>
	<path class="st0" d="M158.335,118.81c-0.721,0-2.214-1.494-2.214-2.214c0-0.693,1.493-2.187,2.214-2.187
		c0.72,0,2.214,1.494,2.214,2.187C160.549,117.316,159.055,118.81,158.335,118.81z"/>
</g>
</svg>
