<?xml version="1.0" encoding="utf-8"?>
<!-- Generator: Adobe Illustrator 17.0.0, SVG Export Plug-In . SVG Version: 6.00 Build 0)  -->
<!DOCTYPE svg PUBLIC "-//W3C//DTD SVG 1.1//EN" "http://www.w3.org/Graphics/SVG/1.1/DTD/svg11.dtd">
<svg version="1.1" id="Layer_1" xmlns="http://www.w3.org/2000/svg" xmlns:xlink="http://www.w3.org/1999/xlink" x="0px" y="0px"
	 width="300px" height="600px" viewBox="0 0 300 600" enable-background="new 0 0 300 600" xml:space="preserve">
<g>
	<path opacity="0.15" fill="#0A0F0F" enable-background="new    " d="M198.973,390.065c-8.411,8.164-19.914,13.235-32.53,13.235
		H37.682V274.539c0-12.616,5.071-24.119,13.235-32.53l-4.7,4.7c-8.164,8.411-13.235,19.79-13.235,32.407V408h128.761
		c12.74,0,24.367-5.195,32.778-13.482L198.973,390.065z"/>
	<path fill="#FFFFFF" d="M123.275,192.78c-15.585,0-30.428,6.184-41.683,17.44c-11.256,11.132-17.317,25.975-17.317,41.56v125.05
		h124.803c32.654,0,59.124-26.47,59.124-59.124V192.78H123.275L123.275,192.78z"/>
	
		<linearGradient id="SVGID_1_" gradientUnits="userSpaceOnUse" x1="288.6431" y1="323.2264" x2="386.3958" y2="420.9792" gradientTransform="matrix(1.7241 0 0 -1.7241 -425.3276 926.0517)">
		<stop  offset="0" style="stop-color:#9CDBF8"/>
		<stop  offset="1" style="stop-color:#009DDA"/>
	</linearGradient>
	<path fill="url(#SVGID_1_)" d="M240.657,317.707c0,28.449-23.13,51.579-51.579,51.579H71.82V251.78
		c0-28.078,23.254-51.455,51.455-51.455h117.381"/>
	
		<linearGradient id="SVGID_2_" gradientUnits="userSpaceOnUse" x1="320.9874" y1="303.0222" x2="320.9874" y2="322.743" gradientTransform="matrix(1.7241 0 0 -1.7241 -425.3276 926.0517)">
		<stop  offset="0" style="stop-color:#10B0E6"/>
		<stop  offset="0.1593" style="stop-color:#0FAAE1"/>
		<stop  offset="0.3678" style="stop-color:#0C9AD2"/>
		<stop  offset="0.6035" style="stop-color:#077FBA"/>
		<stop  offset="0.8576" style="stop-color:#015999"/>
		<stop  offset="0.89" style="stop-color:#005494"/>
	</linearGradient>
	<path fill="url(#SVGID_2_)" d="M189.078,376.707H64.275l0,0L37.682,403.3h128.761c12.616,0,24.119-5.071,32.53-13.235
		l19.543-19.543l-1.113-1.113C208.992,374.109,199.344,376.707,189.078,376.707z"/>
	
		<linearGradient id="SVGID_3_" gradientUnits="userSpaceOnUse" x1="278.3739" y1="302.3331" x2="278.3739" y2="407.6932" gradientTransform="matrix(1.7241 0 0 -1.7241 -425.3276 926.0517)">
		<stop  offset="0" style="stop-color:#0081BD"/>
		<stop  offset="0.3934" style="stop-color:#006FAC"/>
		<stop  offset="0.85" style="stop-color:#005494"/>
	</linearGradient>
	<path fill="url(#SVGID_3_)" d="M64.275,251.656c0-9.895,2.474-19.543,7.298-28.078l-1.113-1.113l-19.543,19.543
		c-8.164,8.411-13.235,19.914-13.235,32.53V403.3l26.593-26.593V251.656z"/>
	
		<linearGradient id="SVGID_4_" gradientUnits="userSpaceOnUse" x1="268.9229" y1="313.0245" x2="372.6862" y2="313.0245" gradientTransform="matrix(1.7241 0 0 -1.7241 -425.3276 926.0517)">
		<stop  offset="0" style="stop-color:#10B0E6"/>
		<stop  offset="0.1611" style="stop-color:#0FAAE1"/>
		<stop  offset="0.3719" style="stop-color:#0C9AD2"/>
		<stop  offset="0.6102" style="stop-color:#077FBA"/>
		<stop  offset="0.8672" style="stop-color:#015999"/>
		<stop  offset="0.9" style="stop-color:#005494"/>
	</linearGradient>
	<path fill="url(#SVGID_4_)" d="M189.078,376.707H64.275l0,0L37.682,403.3h128.761c12.616,0,24.119-5.071,32.53-13.235
		l19.543-19.543l-1.113-1.113C208.992,374.109,199.344,376.707,189.078,376.707z"/>
	
		<linearGradient id="SVGID_5_" gradientUnits="userSpaceOnUse" x1="278.3739" y1="302.3331" x2="278.3739" y2="407.6932" gradientTransform="matrix(1.7241 0 0 -1.7241 -425.3276 926.0517)">
		<stop  offset="0" style="stop-color:#0081BD"/>
		<stop  offset="0.3934" style="stop-color:#006FAC"/>
		<stop  offset="0.85" style="stop-color:#005494"/>
	</linearGradient>
	<path fill="url(#SVGID_5_)" d="M64.275,251.656c0-9.895,2.474-19.543,7.298-28.078l-1.113-1.113l-19.543,19.543
		c-8.164,8.411-13.235,19.914-13.235,32.53V403.3l26.593-26.593V251.656z"/>
</g>
</svg>
