<svg id="Layer_1" xmlns="http://www.w3.org/2000/svg" viewBox="0 0 300 600"><style>.st0{fill:#f9e13a}.st1{fill:none}.st2{fill:#010101}</style><path class="st0" d="M45.9 461.6s-14.7 0-14.7 14.7v4.9s0 14.7 14.7 14.7h152s14.7 0 14.7-14.7v-4.9s0-14.7-14.7-14.7h-152z"/><path class="st1" d="M.4.1h300v600H.4z"/><path class="st2" d="M71.2 477.8c-.3-.8-.8-1.1-1.6-1.1-.6 0-1.3.1-1.3.9 0 .7.8.8 1.3.9.7.2 1.7.3 2.4.8s1.2 1.3 1.2 2.2c0 .9-.4 1.7-1.1 2.3-.7.6-1.7.7-2.6.7-1.7 0-3.3-.7-3.7-2.5l2-.5c.3 1 1 1.3 1.9 1.3.6 0 1.4-.2 1.4-1s-1-.9-1.6-1c-1.6-.3-3.2-.8-3.2-2.8 0-.9.3-1.6 1-2.1.7-.6 1.5-.7 2.3-.7 1.6 0 2.9.6 3.5 2.1l-1.9.5zM79.8 478.7c0-1-.4-2-1.5-2-1.5 0-1.7 2-1.7 3.1 0 1.3.1 2.9 1.8 2.9 1 0 1.5-.8 1.6-1.7l2.1.1c-.2 2.1-1.7 3.3-3.8 3.3-2.7 0-4-2.2-4-4.7s1.4-4.7 4.1-4.7c2.3 0 3.5 1.3 3.7 3.5l-2.3.2zM90.4 484.3h-2.1v-3.8h-2.8v3.8h-2.1v-9.1h2.1v3.6h2.8v-3.6h2.1v9.1zM94.3 476.9v1.8h3.5v1.7h-3.5v2h4.4v1.8h-6.5v-9.1h6.5v1.8h-4.4zM102.5 475.2c1.3 0 2.4.1 3.4 1s1.4 2.2 1.4 3.5c0 1.2-.4 2.4-1.2 3.3-.9 1-2 1.3-3.3 1.3h-3v-9.1h2.7zm-.5 7.4h.7c.9 0 1.5-.2 2-1 .4-.6.5-1.3.5-2s-.2-1.5-.7-2.1c-.5-.6-1-.7-1.8-.7h-.7v5.8zM115.8 480.7c0 1 0 2-.7 2.8-.7.7-1.8 1-2.8 1-1 0-2.1-.1-2.8-.8-.9-.8-.9-1.8-.9-3v-5.5h2.3v5.5c0 .4 0 1 .2 1.4.3.5.9.6 1.4.6.4 0 1.1-.1 1.3-.5.3-.4.3-1.1.3-1.5v-5.5h1.8v5.5zM123.2 482.5v1.8h-5.8v-9.1h2.1v7.3h3.7zM126.2 476.9v1.8h3.5v1.7h-3.5v2h4.4v1.8h-6.5v-9.1h6.5v1.8h-4.4zM142.6 484.3h-2.3l-.6-1.9h-3l-.6 1.9h-1.9l2.9-9.1h2.5l3 9.1zm-3.4-3.5l-1-3.2-1 3.2h2zM152 478.7c0-1-.4-2-1.5-2-1.5 0-1.7 2-1.7 3.1 0 1.3.1 2.9 1.8 2.9 1 0 1.5-.8 1.6-1.7l2.1.1c-.2 2.1-1.7 3.3-3.8 3.3-2.7 0-4-2.2-4-4.7s1.4-4.7 4.1-4.7c2.3 0 3.5 1.3 3.7 3.5l-2.3.2zM163.2 484.3h-2.3l-.6-1.9h-3l-.6 1.9h-1.9l2.9-9.1h2.5l3 9.1zm-3.4-3.5l-1-3.2-1 3.2h2zM169.9 482.5v1.8h-5.8v-9.1h2.1v7.3h3.7zM176.6 482.5v1.8h-5.8v-9.1h2.1v7.3h3.7z"/></svg>