<svg xmlns="http://www.w3.org/2000/svg" width="300" height="600" viewBox="0 0 300 600"><path opacity=".15" fill="#0A0F0F" d="M198.973 390.065c-8.411 8.164-19.914 13.235-32.53 13.235H37.682V274.539c0-12.616 5.071-24.119 13.235-32.53l-4.7 4.7c-8.164 8.411-13.235 19.79-13.235 32.407V408h128.761c12.74 0 24.367-5.195 32.778-13.482l4.452-4.453z"/><path fill="#FFF" d="M123.275 192.78c-15.585 0-30.428 6.184-41.683 17.44-11.256 11.132-17.317 25.975-17.317 41.56v125.05h124.803c32.654 0 59.124-26.47 59.124-59.124V192.78H123.275z"/><linearGradient id="a" gradientUnits="userSpaceOnUse" x1="288.643" y1="323.226" x2="386.396" y2="420.979" gradientTransform="matrix(1.7241 0 0 -1.7241 -425.328 926.052)"><stop offset="0" stop-color="#9cdbf8"/><stop offset="1" stop-color="#009dda"/></linearGradient><path fill="url(#a)" d="M240.657 317.707c0 28.449-23.13 51.579-51.579 51.579H71.82V251.78c0-28.078 23.254-51.455 51.455-51.455h117.381"/><linearGradient id="b" gradientUnits="userSpaceOnUse" x1="320.987" y1="303.022" x2="320.987" y2="322.743" gradientTransform="matrix(1.7241 0 0 -1.7241 -425.328 926.052)"><stop offset="0" stop-color="#10b0e6"/><stop offset=".159" stop-color="#0faae1"/><stop offset=".368" stop-color="#0c9ad2"/><stop offset=".604" stop-color="#077fba"/><stop offset=".858" stop-color="#015999"/><stop offset=".89" stop-color="#005494"/></linearGradient><path fill="url(#b)" d="M189.078 376.707H64.275L37.682 403.3h128.761c12.616 0 24.119-5.071 32.53-13.235l19.543-19.543-1.113-1.113c-8.411 4.7-18.059 7.298-28.325 7.298z"/><linearGradient id="c" gradientUnits="userSpaceOnUse" x1="278.374" y1="302.333" x2="278.374" y2="407.693" gradientTransform="matrix(1.7241 0 0 -1.7241 -425.328 926.052)"><stop offset="0" stop-color="#0081bd"/><stop offset=".393" stop-color="#006fac"/><stop offset=".85" stop-color="#005494"/></linearGradient><path fill="url(#c)" d="M64.275 251.656c0-9.895 2.474-19.543 7.298-28.078l-1.113-1.113-19.543 19.543c-8.164 8.411-13.235 19.914-13.235 32.53V403.3l26.593-26.593V251.656z"/><linearGradient id="d" gradientUnits="userSpaceOnUse" x1="268.923" y1="313.024" x2="372.686" y2="313.024" gradientTransform="matrix(1.7241 0 0 -1.7241 -425.328 926.052)"><stop offset="0" stop-color="#10b0e6"/><stop offset=".161" stop-color="#0faae1"/><stop offset=".372" stop-color="#0c9ad2"/><stop offset=".61" stop-color="#077fba"/><stop offset=".867" stop-color="#015999"/><stop offset=".9" stop-color="#005494"/></linearGradient><path fill="url(#d)" d="M189.078 376.707H64.275L37.682 403.3h128.761c12.616 0 24.119-5.071 32.53-13.235l19.543-19.543-1.113-1.113c-8.411 4.7-18.059 7.298-28.325 7.298z"/><linearGradient id="e" gradientUnits="userSpaceOnUse" x1="278.374" y1="302.333" x2="278.374" y2="407.693" gradientTransform="matrix(1.7241 0 0 -1.7241 -425.328 926.052)"><stop offset="0" stop-color="#0081bd"/><stop offset=".393" stop-color="#006fac"/><stop offset=".85" stop-color="#005494"/></linearGradient><path fill="url(#e)" d="M64.275 251.656c0-9.895 2.474-19.543 7.298-28.078l-1.113-1.113-19.543 19.543c-8.164 8.411-13.235 19.914-13.235 32.53V403.3l26.593-26.593V251.656z"/></svg>