<?xml version="1.0" encoding="utf-8"?>
<!-- Generator: Adobe Illustrator 22.1.0, SVG Export Plug-In . SVG Version: 6.00 Build 0)  -->
<svg version="1.1" id="Layer_1" xmlns="http://www.w3.org/2000/svg" xmlns:xlink="http://www.w3.org/1999/xlink" x="0px" y="0px"
	 viewBox="0 0 300 600" style="enable-background:new 0 0 300 600;" xml:space="preserve">
<style type="text/css">
	.st0{fill:#F9E13A;}
	.st1{fill:none;}
	.st2{fill:#010101;}
</style>
<path class="st0" d="M45.9,461.6c0,0-14.7,0-14.7,14.7v4.9c0,0,0,14.7,14.7,14.7h152c0,0,14.7,0,14.7-14.7v-4.9
	c0,0,0-14.7-14.7-14.7H45.9z"/>
<rect x="0.4" y="0.1" class="st1" width="300" height="600"/>
<g>
	<path class="st2" d="M71.2,477.8c-0.3-0.8-0.8-1.1-1.6-1.1c-0.6,0-1.3,0.1-1.3,0.9c0,0.7,0.8,0.8,1.3,0.9c0.7,0.2,1.7,0.3,2.4,0.8
		c0.7,0.5,1.2,1.3,1.2,2.2c0,0.9-0.4,1.7-1.1,2.3c-0.7,0.6-1.7,0.7-2.6,0.7c-1.7,0-3.3-0.7-3.7-2.5l2-0.5c0.3,1,1,1.3,1.9,1.3
		c0.6,0,1.4-0.2,1.4-1c0-0.8-1-0.9-1.6-1c-1.6-0.3-3.2-0.8-3.2-2.8c0-0.9,0.3-1.6,1-2.1c0.7-0.6,1.5-0.7,2.3-0.7
		c1.6,0,2.9,0.6,3.5,2.1L71.2,477.8z"/>
	<path class="st2" d="M79.8,478.7c0-1-0.4-2-1.5-2c-1.5,0-1.7,2-1.7,3.1c0,1.3,0.1,2.9,1.8,2.9c1,0,1.5-0.8,1.6-1.7l2.1,0.1
		c-0.2,2.1-1.7,3.3-3.8,3.3c-2.7,0-4-2.2-4-4.7c0-2.5,1.4-4.7,4.1-4.7c2.3,0,3.5,1.3,3.7,3.5L79.8,478.7z"/>
	<path class="st2" d="M90.4,484.3h-2.1v-3.8h-2.8v3.8h-2.1v-9.1h2.1v3.6h2.8v-3.6h2.1V484.3z"/>
	<path class="st2" d="M94.3,476.9v1.8h3.5v1.7h-3.5v2h4.4v1.8h-6.5v-9.1h6.5v1.8H94.3z"/>
	<path class="st2" d="M102.5,475.2c1.3,0,2.4,0.1,3.4,1c1,0.9,1.4,2.2,1.4,3.5c0,1.2-0.4,2.4-1.2,3.3c-0.9,1-2,1.3-3.3,1.3h-3v-9.1
		H102.5z M102,482.6h0.7c0.9,0,1.5-0.2,2-1c0.4-0.6,0.5-1.3,0.5-2c0-0.7-0.2-1.5-0.7-2.1c-0.5-0.6-1-0.7-1.8-0.7H102V482.6z"/>
	<path class="st2" d="M115.8,480.7c0,1,0,2-0.7,2.8c-0.7,0.7-1.8,1-2.8,1c-1,0-2.1-0.1-2.8-0.8c-0.9-0.8-0.9-1.8-0.9-3v-5.5h2.3v5.5
		c0,0.4,0,1,0.2,1.4c0.3,0.5,0.9,0.6,1.4,0.6c0.4,0,1.1-0.1,1.3-0.5c0.3-0.4,0.3-1.1,0.3-1.5v-5.5h1.8V480.7z"/>
	<path class="st2" d="M123.2,482.5v1.8h-5.8v-9.1h2.1v7.3H123.2z"/>
	<path class="st2" d="M126.2,476.9v1.8h3.5v1.7h-3.5v2h4.4v1.8h-6.5v-9.1h6.5v1.8H126.2z"/>
	<path class="st2" d="M142.6,484.3h-2.3l-0.6-1.9h-3l-0.6,1.9h-1.9l2.9-9.1h2.5L142.6,484.3z M139.2,480.8l-1-3.2l-1,3.2H139.2z"/>
	<path class="st2" d="M152,478.7c0-1-0.4-2-1.5-2c-1.5,0-1.7,2-1.7,3.1c0,1.3,0.1,2.9,1.8,2.9c1,0,1.5-0.8,1.6-1.7l2.1,0.1
		c-0.2,2.1-1.7,3.3-3.8,3.3c-2.7,0-4-2.2-4-4.7c0-2.5,1.4-4.7,4.1-4.7c2.3,0,3.5,1.3,3.7,3.5L152,478.7z"/>
	<path class="st2" d="M163.2,484.3h-2.3l-0.6-1.9h-3l-0.6,1.9h-1.9l2.9-9.1h2.5L163.2,484.3z M159.8,480.8l-1-3.2l-1,3.2H159.8z"/>
	<path class="st2" d="M169.9,482.5v1.8h-5.8v-9.1h2.1v7.3H169.9z"/>
	<path class="st2" d="M176.6,482.5v1.8h-5.8v-9.1h2.1v7.3H176.6z"/>
</g>
</svg>
